<svg width="250" height="196" viewBox="0 0 250 196" fill="none" xmlns="http://www.w3.org/2000/svg">
<path opacity="0.5" d="M200.334 129.445C210.062 126.168 213.981 112.558 214.205 109.43C214.827 100.032 207.571 90.5895 199.704 85.1714C194.67 81.7076 188.645 79.9738 183.443 76.7781C178.789 73.8941 174.912 69.9171 172.151 65.1938C169.39 60.4704 167.827 55.1439 167.6 49.6784C167.409 42.8993 169.36 36.141 168.827 29.354C168.293 22.567 164.051 15.1263 157.162 14.3731C154.286 14.24 151.425 14.8762 148.877 16.2158C142.587 19.1272 137.151 23.6016 133.089 29.2106C130.433 32.868 128.116 37.2155 123.883 38.8907C118.671 40.9425 112.72 38.0148 108.54 34.2305C104.361 30.4463 101.062 25.5306 96.0913 22.8733C79.7759 14.1716 59.1932 27.646 55.2454 33.4609C42.6462 51.9129 52.9819 72.3392 57.9845 80.1572C62.9872 87.9752 68.8434 95.4728 71.698 104.27C78.986 126.833 64.7518 151.511 71.0143 174.323C71.6579 177.456 73.1105 180.368 75.2281 182.768C77.3457 185.168 80.055 186.973 83.0874 188.005C91.4701 191.534 100.843 191.948 109.509 189.174C128.57 182.961 138.941 163.22 154.261 150.478C167.901 139.11 183.531 135.113 200.334 129.445Z" fill="#C3EEF4"/>
<path d="M191.323 75.5402C193.121 75.393 199.844 65 207.575 65C214.061 65 217.208 69.7325 217.658 72.8262C217.658 72.8262 220.869 69.3548 227.102 70.8697C232.137 72.094 233.168 75.5344 233.525 77.4968V77.706C233.525 77.706 236.843 75.4763 241.981 75.7688C246.824 76.042 248.472 78.7191 249.176 79.9783H184C184 79.9783 184.619 76.0884 191.323 75.5402Z" fill="#87DDE8"/>
<path d="M11.0064 130.682H64.823C64.823 130.682 64.5599 118.813 46.3592 119.865C46.3592 119.865 40.0279 111.882 29.2151 112.579C18.4024 113.275 10.7473 125.14 11.0064 130.682Z" fill="#87DDE8"/>
<path d="M0 39H67C67 39 63.9475 31.5393 56.7819 31.7432C49.6162 31.9471 45.917 34.3002 41.6131 32.8664C37.3092 31.4326 29.6035 25.3053 18.1081 27.4512C6.61269 29.5972 0 39 0 39Z" fill="#87DDE8"/>
<path d="M116.365 151.606V163.841" stroke="#FCDA97" stroke-width="1.99745"/>
<path d="M140.834 151.606V163.841" stroke="#FCDA97" stroke-width="1.99745"/>
<path d="M113.738 163.034H144.152V179.925C144.152 181.609 143.483 183.223 142.293 184.413C141.103 185.604 139.488 186.272 137.805 186.272H120.085C118.402 186.272 116.787 185.604 115.597 184.413C114.407 183.223 113.738 181.609 113.738 179.925V163.034Z" fill="#FFD686"/>
<path d="M130.048 174.554C123.897 174.554 116.612 176.447 113.738 177.393V167.454H144.029V177.393C141.932 176.447 136.2 174.554 130.048 174.554Z" fill="#FFD27A"/>
<path d="M143.593 162.343H113.965C112.533 162.343 111.372 163.504 111.372 164.936V166.091C111.372 167.524 112.533 168.685 113.965 168.685H143.593C145.026 168.685 146.187 167.524 146.187 166.091V164.936C146.187 163.504 145.026 162.343 143.593 162.343Z" fill="#FFD686"/>
<path d="M127.026 155.666C114.271 154.138 73.9514 133.526 73.9514 90.778C73.9514 54.5571 100.664 39.5348 128.143 39C109.727 46.2603 95.4483 63.313 95.4483 93.1256C95.4483 123.804 111.838 144.355 127.026 155.666Z" fill="#2CC3D5"/>
<path d="M128.915 39V155.751H128.441C127.967 155.75 127.493 155.72 127.022 155.662C111.834 144.35 95.4436 123.8 95.4436 93.1208C95.4436 63.3035 109.723 46.265 128.139 39.0095C128.38 39 128.659 39 128.915 39Z" fill="#87DDE8"/>
<path d="M130.803 155.666C143.558 154.138 183.878 133.526 183.878 90.778C183.878 54.5571 157.165 39.5348 129.686 39C148.102 46.2461 162.381 63.2988 162.381 93.1114C162.381 123.804 145.991 144.355 130.803 155.666Z" fill="#87DDE8"/>
<path d="M128.915 39V155.751H129.388C129.863 155.75 130.337 155.72 130.808 155.662C145.996 144.35 162.386 123.8 162.386 93.1208C162.386 63.3035 148.107 46.265 129.691 39.0095C129.43 39 129.17 39 128.915 39Z" fill="#2CC3D5"/>
</svg>
