<svg width="48" height="18" viewBox="0 0 48 18" fill="none" xmlns="http://www.w3.org/2000/svg">
<path d="M7.5064 0.830296C8.56411 0.827986 9.61939 0.93156 10.6565 1.13947C12.6923 1.55559 14.0243 2.85256 14.4054 4.77371C14.6405 5.93403 14.6819 7.12524 14.5279 8.29907C14.3997 9.43344 13.9994 10.5201 13.3612 11.4666C12.844 12.2017 12.0993 12.8803 11.3798 13.5356L10.9306 13.9478C10.2656 14.5681 9.587 15.167 8.94921 15.7114V14.7781C8.94921 14.5118 8.84356 14.2564 8.65545 14.0679C8.46734 13.8795 8.21214 13.7733 7.94585 13.7728C6.16859 13.7728 3.68548 13.1583 2.58685 12.0228C1.22571 10.6052 0.877646 8.53435 0.836811 7.04682C0.794033 5.6079 1.01765 3.01006 3.0263 1.77532C4.01605 1.16669 5.60469 0.830296 7.5064 0.830296ZM7.5064 0C5.71358 0 3.8566 0.287784 2.59268 1.06558C0.539305 2.33338 -0.0595967 4.79705 0.00457137 7.07015C0.0648504 9.03408 0.587917 11.1536 1.99184 12.5964C3.3277 13.9809 6.07526 14.6031 7.9478 14.6031C7.97092 14.6026 7.99392 14.6067 8.01539 14.6153C8.03686 14.6239 8.05637 14.6368 8.07273 14.6532C8.08909 14.6695 8.10196 14.689 8.11056 14.7105C8.11917 14.732 8.12333 14.755 8.1228 14.7781V16.7595C8.12144 16.8063 8.12969 16.8528 8.14702 16.8963C8.16435 16.9397 8.1904 16.9791 8.22356 17.0121C8.25673 17.0451 8.2963 17.0709 8.33984 17.088C8.38337 17.1051 8.42995 17.1131 8.4767 17.1115H8.50975C8.5809 17.1056 8.64866 17.0785 8.7042 17.0337C9.64728 16.2267 10.5923 15.4062 11.5023 14.5623C12.3754 13.7514 13.3651 12.9192 14.0476 11.9508C15.4885 9.90521 15.7024 7.01376 15.2143 4.61815C14.7554 2.31199 13.1162 0.810851 10.8198 0.340285C9.72933 0.117406 8.61941 0.00341799 7.5064 0" fill="#2CC3D5"/>
<path d="M19.9628 3.16175H22.9203C23.4258 3.1581 23.9303 3.20763 24.4254 3.30953C24.8387 3.39204 25.2339 3.54813 25.5921 3.77037C25.9096 3.97208 26.1701 4.25195 26.3485 4.58317C26.5387 4.95728 26.6323 5.37308 26.6207 5.79264C26.6313 6.34421 26.4476 6.88194 26.1017 7.31171C25.7558 7.74149 25.2698 8.03594 24.7287 8.14352V8.20963C25.5182 8.33019 26.132 8.60372 26.5701 9.03021C27.0083 9.4567 27.2274 10.0433 27.2274 10.79C27.2382 11.2672 27.1363 11.7402 26.9299 12.1706C26.7363 12.5616 26.4515 12.9004 26.0996 13.1584C25.7129 13.4317 25.2782 13.6296 24.8182 13.7417C24.2779 13.8776 23.7224 13.9429 23.1653 13.9361H19.9628V3.16175ZM22.685 7.76435C23.6067 7.76435 24.2672 7.60555 24.6665 7.28795C24.8683 7.12155 25.0278 6.90966 25.132 6.66968C25.2361 6.42969 25.2818 6.16844 25.2654 5.90736C25.2654 5.32402 25.0554 4.8904 24.6334 4.63372C24.2115 4.37705 23.5834 4.24483 22.7512 4.24483H21.3375V7.76435H22.685ZM22.9651 12.8608C23.8971 12.8608 24.6146 12.6884 25.1176 12.3436C25.6206 11.9988 25.8727 11.4589 25.874 10.7239C25.874 10.0569 25.629 9.55716 25.1351 9.25382C24.6412 8.95048 23.9179 8.7852 22.9651 8.7852H21.3375V12.8686L22.9651 12.8608Z" fill="#F8FBFB"/>
<path d="M28.9366 3.16174H30.2841V12.7792H35.6276V13.9459H28.9366V3.16174Z" fill="#F8FBFB"/>
<path d="M33.7803 6.26709H38.8437V13.9459H37.4942V7.36961H33.7803V6.26709Z" fill="#F8FBFB"/>
<path d="M37.8851 5.00509C37.6316 5.016 37.3839 4.92738 37.1948 4.75814C37.1036 4.67207 37.0322 4.56706 36.9859 4.4505C36.9395 4.33394 36.9193 4.20864 36.9265 4.0834C36.9211 3.95837 36.9422 3.8336 36.9884 3.7173C37.0347 3.60101 37.105 3.49582 37.1948 3.40866C37.3857 3.24428 37.6293 3.15387 37.8812 3.15387C38.1331 3.15387 38.3767 3.24428 38.5676 3.40866C38.6593 3.49475 38.7315 3.59956 38.7791 3.71598C38.8268 3.8324 38.8488 3.95771 38.8437 4.0834C38.8494 4.20801 38.8275 4.33233 38.7798 4.44758C38.7321 4.56283 38.6597 4.66619 38.5676 4.75036C38.3798 4.91648 38.1357 5.00478 37.8851 4.99731" fill="#F8FBFB"/>
<path d="M40.7143 3.16173H44.0199C44.5669 3.15662 45.1127 3.21205 45.6475 3.32701C46.0985 3.41804 46.5264 3.59926 46.9056 3.8598C47.2536 4.10867 47.531 4.4437 47.7106 4.83204C47.9159 5.30377 48.0141 5.81509 47.9984 6.3293C48.0111 6.8376 47.9128 7.34256 47.7106 7.80905C47.528 8.21493 47.2489 8.57005 46.8978 8.84352C46.523 9.12962 46.0955 9.33908 45.6397 9.45992C45.1119 9.60293 44.5668 9.67229 44.0199 9.66604H42.0755V13.9439H40.7143V3.16173ZM43.8372 8.55573C44.7926 8.55573 45.4971 8.37749 45.9508 8.021C46.4045 7.66451 46.632 7.1032 46.6333 6.33708C46.6333 5.55928 46.4 5.01936 45.9333 4.71732C45.4666 4.41528 44.7679 4.2649 43.8372 4.2662H42.0871V8.55573H43.8372Z" fill="#F8FBFB"/>
</svg>
